<svg width="1200" height="760" viewBox="0 0 1200 760" fill="none" xmlns="http://www.w3.org/2000/svg">
  <defs>
    <linearGradient id="bg" x1="0" y1="0" x2="1200" y2="760" gradientUnits="userSpaceOnUse">
      <stop offset="0" stop-color="#062246"/>
      <stop offset="1" stop-color="#031327"/>
    </linearGradient>
    <linearGradient id="card" x1="170" y1="130" x2="1030" y2="620" gradientUnits="userSpaceOnUse">
      <stop offset="0" stop-color="#0A3654"/>
      <stop offset="1" stop-color="#08243E"/>
    </linearGradient>
    <linearGradient id="bar" x1="0" y1="0" x2="1" y2="0">
      <stop offset="0" stop-color="#78E9F8" stop-opacity="0.88"/>
      <stop offset="1" stop-color="#5EC0E4" stop-opacity="0.42"/>
    </linearGradient>
    <radialGradient id="glow" cx="0" cy="0" r="1" gradientUnits="userSpaceOnUse" gradientTransform="translate(900 150) rotate(132) scale(560 420)">
      <stop offset="0" stop-color="#3BD3F3" stop-opacity="0.24"/>
      <stop offset="1" stop-color="#3BD3F3" stop-opacity="0"/>
    </radialGradient>
    <filter id="soft" x="0" y="0" width="1200" height="760" filterUnits="userSpaceOnUse" color-interpolation-filters="sRGB">
      <feGaussianBlur stdDeviation="22"/>
    </filter>
  </defs>

  <rect width="1200" height="760" rx="40" fill="url(#bg)"/>
  <rect width="1200" height="760" rx="40" fill="url(#glow)"/>

  <g opacity="0.15" stroke="#8ED8EE" stroke-width="1">
    <path d="M0 95H1200"/>
    <path d="M0 190H1200"/>
    <path d="M0 285H1200"/>
    <path d="M0 380H1200"/>
    <path d="M0 475H1200"/>
    <path d="M0 570H1200"/>
    <path d="M0 665H1200"/>
    <path d="M120 0V760"/>
    <path d="M240 0V760"/>
    <path d="M360 0V760"/>
    <path d="M480 0V760"/>
    <path d="M600 0V760"/>
    <path d="M720 0V760"/>
    <path d="M840 0V760"/>
    <path d="M960 0V760"/>
    <path d="M1080 0V760"/>
  </g>

  <rect x="160" y="120" width="880" height="520" rx="28" fill="url(#card)" stroke="#3AA8CA" stroke-opacity="0.58"/>

  <rect x="220" y="190" width="210" height="32" rx="10" fill="#4FC5DE" fill-opacity="0.55"/>

  <rect x="220" y="265" width="720" height="20" rx="10" fill="url(#bar)"/>
  <rect x="220" y="303" width="640" height="20" rx="10" fill="url(#bar)"/>
  <rect x="220" y="341" width="590" height="20" rx="10" fill="url(#bar)"/>
  <rect x="220" y="379" width="500" height="20" rx="10" fill="url(#bar)"/>
  <rect x="220" y="417" width="630" height="20" rx="10" fill="url(#bar)"/>
  <rect x="220" y="455" width="430" height="20" rx="10" fill="url(#bar)"/>

  <g filter="url(#soft)" opacity="0.35">
    <circle cx="930" cy="205" r="68" fill="#63D5EA"/>
  </g>

  <rect x="740" y="510" width="230" height="70" rx="16" fill="#0E3A5D" stroke="#4CB9D8" stroke-opacity="0.7"/>
  <path d="M778 546H820" stroke="#96EBFF" stroke-width="7" stroke-linecap="round"/>
  <path d="M842 546H930" stroke="#96EBFF" stroke-width="7" stroke-linecap="round" opacity="0.7"/>
</svg>
